<svg xmlns="http://www.w3.org/2000/svg" xmlns:xlink="http://www.w3.org/1999/xlink" width="400" height="400" viewBox="0 0 400 400"><defs><linearGradient id="gradient-20"><stop stop-color="#616162" offset="0"/><stop stop-color="#e6e7e9" offset="0.5"/><stop stop-color="#616162" offset="1"/></linearGradient></defs>
<rect data-name="background" width="100%" height="100%" fill="none"/><g data-name="icon" fill="url(#gradient-20)" data="id:7735544" transform="translate(11.123366957695222,162.93643055727654) scale(0.7721608877467684)">
  
 <path d="m78 79.488v1.5117c0 0.82422 0.67578 1.5 1.5 1.5s1.5-0.67578 1.5-1.5v-5.25c0-0.83203-0.66797-1.5-1.5-1.5h-5.2305c-0.82422 0-1.5 0.67578-1.5 1.5s0.67578 1.5 1.5 1.5h1.7305c-7.2734 6.9688-17.145 11.25-28 11.25-22.352 0-40.5-18.148-40.5-40.5 0-0.82422-0.67578-1.5-1.5-1.5s-1.5 0.67578-1.5 1.5c0 24.008 19.492 43.5 43.5 43.5 11.625 0 22.195-4.5703 30-12.012zm-23.395-61.438c-0.15625-0.55469-0.61719-0.98047-1.1875-1.082-3.5859-0.625-7.25-0.625-10.836 0-0.57031 0.10156-1.0312 0.52344-1.1875 1.082l-1.7734 6.5-2.2734 0.94531-5.8516-3.3438c-0.50781-0.28906-1.1328-0.25781-1.6055 0.082031-2.9766 2.0859-5.5703 4.6797-7.6562 7.6562-0.33594 0.47656-0.36719 1.1016-0.082031 1.6055l3.3438 5.8516-0.94531 2.2734-6.5 1.7734c-0.55469 0.15625-0.98047 0.61719-1.082 1.1875-0.625 3.5859-0.625 7.25 0 10.836 0.10156 0.57031 0.52344 1.0312 1.082 1.1875l6.5 1.7734 0.94531 2.2734-3.3438 5.8516c-0.28906 0.50781-0.25781 1.1328 0.082031 1.6055 2.0859 2.9766 4.6797 5.5703 7.6562 7.6562 0.47656 0.33594 1.1016 0.36719 1.6055 0.082031l5.8516-3.3438 2.2734 0.94531 1.7734 6.5c0.15625 0.55469 0.61719 0.98047 1.1875 1.082 3.5859 0.625 7.25 0.625 10.836 0 0.57031-0.10156 1.0312-0.52344 1.1875-1.082l1.7734-6.5 2.2734-0.94531 5.8516 3.3438c0.50781 0.28906 1.1328 0.25781 1.6055-0.082031 2.9766-2.0859 5.5703-4.6797 7.6562-7.6562 0.33594-0.47656 0.36719-1.1016 0.082031-1.6055l-3.3438-5.8516 0.94531-2.2734 6.5-1.7734c0.55469-0.15625 0.98047-0.61719 1.082-1.1875 0.625-3.5859 0.625-7.25 0-10.836-0.10156-0.57031-0.52344-1.0312-1.082-1.1875l-6.5-1.7734-0.94531-2.2734 3.3438-5.8516c0.28906-0.50781 0.25781-1.1328-0.082031-1.6055-2.0859-2.9766-4.6797-5.5703-7.6562-7.6562-0.47656-0.33594-1.1016-0.36719-1.6055-0.082031l-5.8516 3.3438-2.2734-0.94531zm-2.6367 1.7266 1.7266 6.3359c0.13672 0.48828 0.50781 0.875 0.99219 1.0312 1.1445 0.36719 2.2617 0.83203 3.332 1.3828 0.44922 0.23047 0.98828 0.21875 1.4297-0.03125l5.6992-3.2578c2.125 1.6016 4.0117 3.4883 5.6133 5.6133l-3.2578 5.6992c-0.25 0.44531-0.26172 0.98047-0.03125 1.4297 0.55078 1.0703 1.0117 2.1875 1.3828 3.332 0.15625 0.48828 0.54297 0.85547 1.0312 0.99219l6.3359 1.7266c0.36719 2.6328 0.36719 5.3047 0 7.9375l-6.3359 1.7266c-0.48828 0.13672-0.875 0.50781-1.0312 0.99219-0.36719 1.1445-0.83203 2.2617-1.3828 3.332-0.23047 0.44922-0.21875 0.98828 0.03125 1.4297l3.2578 5.6992c-1.6016 2.125-3.4883 4.0117-5.6133 5.6133l-5.6992-3.2578c-0.44531-0.25-0.98047-0.26172-1.4297-0.03125-1.0703 0.55078-2.1875 1.0117-3.332 1.3828-0.48828 0.15625-0.85547 0.54297-0.99219 1.0312l-1.7266 6.3359c-2.6328 0.36719-5.3047 0.36719-7.9375 0l-1.7266-6.3359c-0.13672-0.48828-0.50781-0.875-0.99219-1.0312-1.1445-0.36719-2.2617-0.83203-3.332-1.3828-0.44922-0.23047-0.98828-0.21875-1.4297 0.03125l-5.6992 3.2578c-2.125-1.6016-4.0117-3.4883-5.6133-5.6133l3.2578-5.6992c0.25-0.44531 0.26172-0.98047 0.03125-1.4297-0.55078-1.0703-1.0117-2.1875-1.3828-3.332-0.15625-0.48828-0.54297-0.85547-1.0312-0.99219l-6.3359-1.7266c-0.36719-2.6328-0.36719-5.3047 0-7.9375l6.3359-1.7266c0.48828-0.13672 0.875-0.50781 1.0312-0.99219 0.36719-1.1445 0.83203-2.2617 1.3828-3.332 0.23047-0.44922 0.21875-0.98828-0.03125-1.4297l-3.2578-5.6992c1.6016-2.125 3.4883-4.0117 5.6133-5.6133l5.6992 3.2578c0.44531 0.25 0.98047 0.26172 1.4297 0.03125 1.0703-0.55078 2.1875-1.0117 3.332-1.3828 0.48828-0.15625 0.85547-0.54297 0.99219-1.0312l1.7266-6.3359c2.6328-0.36719 5.3047-0.36719 7.9375 0zm-3.9375 20.43-3 15c-0.16406 0.8125 0.36328 1.6016 1.1758 1.7617 0.8125 0.16406 1.6016-0.36328 1.7617-1.1758l3-15c0.16406-0.8125-0.36328-1.6016-1.1758-1.7617-0.8125-0.16406-1.6016 0.36328-1.7617 1.1758zm5.1367 3.043 7.125 4.75-7.125 4.75c-0.6875 0.46094-0.875 1.3945-0.41797 2.082 0.46094 0.6875 1.3945 0.875 2.082 0.41797l9-6c0.41797-0.28125 0.66797-0.75 0.66797-1.25s-0.25-0.96875-0.66797-1.25l-9-6c-0.6875-0.45703-1.6172-0.26953-2.082 0.41797-0.45703 0.6875-0.26953 1.6172 0.41797 2.082zm-12-2.5-9 6c-0.41797 0.28125-0.66797 0.75-0.66797 1.25s0.25 0.96875 0.66797 1.25l9 6c0.6875 0.45703 1.6172 0.26953 2.082-0.41797 0.45703-0.6875 0.26953-1.6172-0.41797-2.082l-7.125-4.75 7.125-4.75c0.6875-0.46094 0.875-1.3945 0.41797-2.082-0.46094-0.6875-1.3945-0.875-2.082-0.41797zm-23.168-24.238v-1.5117c0-0.82422-0.67578-1.5-1.5-1.5s-1.5 0.67578-1.5 1.5v5.25c0 0.83203 0.66797 1.5 1.5 1.5h5.2305c0.82422 0 1.5-0.67578 1.5-1.5s-0.67578-1.5-1.5-1.5h-1.7305c7.2734-6.9688 17.145-11.25 28-11.25 22.352 0 40.5 18.148 40.5 40.5 0 0.82422 0.67578 1.5 1.5 1.5s1.5-0.67578 1.5-1.5c0-24.008-19.492-43.5-43.5-43.5-11.625 0-22.195 4.5703-30 12.012z" fill-rule="evenodd"/>

  </g><g data-name="business_name" fill="url(#gradient-20)" data="id:102" transform="translate(104.40344683448708,165.96333400413425) scale(1.031414061472714)"><path d="M6.42,48l-4.12-4.12l0-5.04l5.66,0l0,2.28l1.22,1.22l7.68,0l1.22-1.22l0-3.08l-1.22-1.22l-10.32,0l-4.12-4.12l0-8.58l4.12-4.12l12.7,0l4.12,4.12l0,5.04l-5.66,0l0-2.28l-1.22-1.22l-7.18,0l-1.24,1.22l0,3.06l1.24,1.22l10.32,0l4.12,4.12l0,8.6l-4.12,4.12l-13.2,0z M6.64,47.46l12.76,0l3.8-3.8l0-8.16l-3.8-3.84l-10.34,0l-1.52-1.48l0-3.52l1.52-1.54l7.64,0l1.54,1.54l0,1.96l4.58,0l0-4.28l-3.8-3.8l-12.26,0l-3.8,3.8l0,8.14l3.8,3.82l10.32,0l1.54,1.44l0,3.6l-1.54,1.54l-8.12,0l-1.54-1.54l0-1.96l-4.58,0l0,4.28z M28.54,48l0-29.98l5.66,0l0,8.76l0.38-0.38l9.34,0l4.12,4.12l0,17.48l-5.66,0l0-14.72l-1.22-1.24l-5.36,0l-1.6,1.62l0,14.34l-5.66,0z M29.08,47.46l4.58,0l0-14.02l1.92-1.92l5.8,0l1.54,1.52l0,14.42l4.58,0l0-16.72l-3.8-3.8l-8.9,0l-1.14,1.14l0-9.52l-4.58,0l0,28.9z M68.98,26.4l4.12,4.12l0,5.7l-4.12,4.12l-10.88,0l0,0.78l1.22,1.22l13.5,0l0,5.66l-16.26,0l-4.12-4.12l0-13.36l4.12-4.12l12.42,0z M66.46,31.52l1.54,1.54l0,1.22l-1.16,1.16l-9.28,0l0-2.38l1.54-1.54l7.36,0z M68.76,26.94l-11.98,0l-3.8,3.8l0,12.94l3.8,3.8l15.48,0l0-4.58l-13.16,0l-1.54-1.54l0-1.54l11.2,0l3.8-3.82l0-5.26z M66.22,32.06l-6.9,0l-1.22,1.22l0,1.6l8.52,0l0.84-0.84l0-0.76z M77.5,48l0-5.64l3.88,0l0-10.02l-0.3-0.3l-3.54,0l0-5.64l5.06,0l1.36,1.6l1.54-1.6l7.78,0l4.38,4.38l-4.36,4.24l-2.76-2.96l-2.28,0l-1.22,1.22l0,9.1l3.88,0l0,5.62l-13.42,0z M78.06,47.46l12.32,0l0-4.54l-3.88,0l0-9.86l1.54-1.54l2.74,0l2.58,2.74l3.56-3.5l-3.86-3.82l-7.34,0l-1.8,1.86l-1.66-1.86l-4.18,0l0,4.56l3.24,0l0.6,0.62l0,10.8l-3.86,0l0,4.54z M104.58,48l-4.12-4.12l0-5.7l4.12-4.12l10.88,0l0-0.78l-1.22-1.22l-13.5,0l0-5.66l16.26,0l4.12,4.12l0,13.36l-4.12,4.12l-12.42,0z M107.1,42.88l-1.54-1.54l0-1.22l1.16-1.16l9.28,0l0,2.38l-1.54,1.54l-7.36,0z M104.8,47.46l11.98,0l3.8-3.8l0-12.94l-3.8-3.8l-15.48,0l0,4.58l13.16,0l1.54,1.54l0,1.54l-11.2,0l-3.8,3.82l0,5.26z M107.34,42.34l6.9,0l1.22-1.22l0-1.6l-8.52,0l-0.84,0.84l0,0.76z  M142.76,48l0-22.34l-6.94,0l0-5.66l19.52,0l0,5.66l-6.94,0l0,22.34l-5.64,0z M143.3,47.46l4.56,0l0-22.34l6.94,0l0-4.58l-18.44,0l0,4.58l6.94,0l0,22.34z M163.16,48l-4.12-4.12l0-13.36l4.12-4.12l12.5,0l4.12,4.12l0,13.36l-4.12,4.12l-12.5,0z M163.38,47.46l12.06,0l3.8-3.8l0-12.92l-3.8-3.8l-12.06,0l-3.8,3.8l0,12.92z M165.7,42.88l-1.54-1.54l0-8.28l1.54-1.54l7.42,0l1.54,1.54l0,8.28l-1.54,1.54l-7.42,0z M165.92,42.34l6.98,0l1.22-1.22l0-7.84l-1.22-1.22l-6.98,0l-1.22,1.22l0,7.84z M182.88,48l0-5.66l5.4,0l0-18.68l-5.4,0l0-5.66l11.04,0l0,24.34l5.4,0l0,5.66l-16.44,0z M183.42,47.46l15.36,0l0-4.58l-5.4,0l0-24.34l-9.96,0l0,4.58l5.4,0l0,19.76l-5.4,0l0,4.58z M218.96,26.4l4.12,4.12l0,5.7l-4.12,4.12l-10.88,0l0,0.78l1.22,1.22l13.5,0l0,5.66l-16.26,0l-4.12-4.12l0-13.36l4.12-4.12l12.42,0z M216.44,31.52l1.54,1.54l0,1.22l-1.16,1.16l-9.28,0l0-2.38l1.54-1.54l7.36,0z M218.74,26.94l-11.98,0l-3.8,3.8l0,12.94l3.8,3.8l15.48,0l0-4.58l-13.16,0l-1.54-1.54l0-1.54l11.2,0l3.8-3.82l0-5.26z M216.2,32.06l-6.9,0l-1.22,1.22l0,1.6l8.52,0l0.84-0.84l0-0.76z M242.86,48l-11.24,0l-4.14-4.12l0-13.36l4.14-4.12l9.32,0l0.4,0.38l0-8.78l5.66,0l0,25.88z M240.34,42.88l-6.2,0l-1.54-1.54l0-8.3l1.54-1.52l5.82,0l1.92,1.92l0,7.9z M240.12,42.34l1.22-1.22l0-7.46l-1.6-1.62l-5.38,0l-1.22,1.24l0,7.84l1.22,1.22l5.76,0z M242.64,47.46l3.82-3.8l0-25.12l-4.58,0l0,9.54l-1.16-1.14l-8.88,0l-3.82,3.8l0,12.92l3.82,3.8l10.8,0z M255.82,48l-4.12-4.12l0-13.36l4.12-4.12l12.5,0l4.12,4.12l0,13.36l-4.12,4.12l-12.5,0z M256.04,47.46l12.06,0l3.8-3.8l0-12.92l-3.8-3.8l-12.06,0l-3.8,3.8l0,12.92z M258.36,42.88l-1.54-1.54l0-8.28l1.54-1.54l7.42,0l1.54,1.54l0,8.28l-1.54,1.54l-7.42,0z M258.58,42.34l6.98,0l1.22-1.22l0-7.84l-1.22-1.22l-6.98,0l-1.22,1.22l0,7.84z"/></g></svg>